<svg width="35" height="35" viewBox="0 0 35 35" fill="none" xmlns="http://www.w3.org/2000/svg">
<path d="M7 25.8217C7 27.0197 7.98022 27.9999 9.17826 27.9999H12.01L7 22.99V25.8217Z" fill="black"/>
<path d="M28.3464 10.1386L24.8612 6.65347C23.9899 5.78218 22.683 5.78218 21.8117 6.65347L21.5938 6.87129C21.1582 7.30693 21.1582 7.9604 21.5938 8.39604L26.6038 13.406C27.0395 13.8416 27.693 13.8416 28.1286 13.406L28.3464 13.1881C29.2177 12.3168 29.2177 11.0099 28.3464 10.1386Z" fill="black"/>
<path d="M20.0695 9.92097C19.6338 9.48533 18.9804 9.48533 18.5447 9.92097L8.63362 19.8319C8.08906 20.3764 8.08906 21.0299 8.52471 21.4655L13.5347 26.4754C13.9704 26.9111 14.6238 26.9111 15.0595 26.4754L24.9706 16.5645C25.4062 16.1289 25.4062 15.4754 24.9706 15.0398L20.0695 9.92097Z" fill="black"/>
</svg>
