<svg width="24" height="24" viewBox="0 0 24 24" fill="none" xmlns="http://www.w3.org/2000/svg">
<path d="M18 3C18.2449 3.00003 18.4813 3.08996 18.6644 3.25272C18.8474 3.41547 18.9643 3.63975 18.993 3.883L19 4V20C18.9997 20.2549 18.9021 20.5 18.7272 20.6854C18.5522 20.8707 18.313 20.9822 18.0586 20.9972C17.8042 21.0121 17.5536 20.9293 17.3582 20.7657C17.1627 20.6021 17.0371 20.3701 17.007 20.117L17 20V15H16C15.7551 15 15.5187 14.91 15.3356 14.7473C15.1526 14.5845 15.0357 14.3603 15.007 14.117L15 14V8C15 5.79 16.5 3 18 3ZM12 3C12.2449 3.00003 12.4813 3.08996 12.6644 3.25272C12.8474 3.41547 12.9643 3.63975 12.993 3.883L13 4V9C12.9999 9.88687 12.7052 10.7486 12.1622 11.4498C11.6192 12.151 10.8586 12.6519 10 12.874V20C9.99972 20.2549 9.90212 20.5 9.72715 20.6854C9.55218 20.8707 9.31305 20.9822 9.05861 20.9972C8.80416 21.0121 8.55362 20.9293 8.35817 20.7657C8.16271 20.6021 8.0371 20.3701 8.007 20.117L8 20V12.874C7.17545 12.6608 6.44041 12.1902 5.90176 11.5305C5.36312 10.8708 5.04897 10.0565 5.005 9.206L5 9V4C5.00028 3.74512 5.09788 3.49997 5.27285 3.31463C5.44782 3.1293 5.68695 3.01777 5.94139 3.00283C6.19584 2.98789 6.44638 3.07067 6.64183 3.23426C6.83729 3.39786 6.9629 3.6299 6.993 3.883L7 4V9C7.00001 9.35106 7.09243 9.69594 7.26796 9.99997C7.4435 10.304 7.69597 10.5565 8 10.732V4C8.00028 3.74512 8.09788 3.49997 8.27285 3.31463C8.44782 3.1293 8.68695 3.01777 8.94139 3.00283C9.19584 2.98789 9.44638 3.07067 9.64183 3.23426C9.83729 3.39786 9.9629 3.6299 9.993 3.883L10 4L10.001 10.732C10.2801 10.5707 10.516 10.3443 10.6887 10.0722C10.8614 9.80004 10.9658 9.49018 10.993 9.169L11 9V4C11 3.73478 11.1054 3.48043 11.2929 3.29289C11.4804 3.10536 11.7348 3 12 3Z" fill="white"/>
</svg>
