<svg width="92" height="82" viewBox="0 0 92 82" fill="none" xmlns="http://www.w3.org/2000/svg">
<path d="M46.0012 10.072C48.6088 10.072 51.2025 11.708 53.178 14.9802L80.6581 60.5222C84.6137 67.0619 81.5599 72.4138 73.8904 72.4138H18.112C10.4425 72.4138 7.38864 67.0573 11.3443 60.5222L38.8244 14.9802C40.7999 11.708 43.3936 10.072 46.0012 10.072ZM46.0012 0.828613C39.9771 0.828613 34.4644 4.24866 30.8527 10.2152L3.3726 55.7665C-0.280876 61.8163 -0.68062 68.2682 2.28028 73.4676C5.24118 78.667 11.0142 81.6572 18.112 81.6572H73.8904C80.9881 81.6572 86.7658 78.6716 89.7221 73.4722C92.6784 68.2728 92.2832 61.8209 88.6298 55.7712L61.1497 10.2291C57.538 4.24866 52.0252 0.828613 46.0012 0.828613Z" fill="#FF3636"/>
<path d="M52.9752 62.0056C52.9752 62.0056 49.6703 63.674 47.9784 62.8468C46.2957 61.9964 45.961 60.3464 46.9139 57.5226L48.8011 51.8795C50.6743 46.2364 48.2387 42.2849 43.7717 42.0307C37.9243 41.7072 34.3824 45.8482 34.3824 45.8482C34.3824 45.8482 37.6826 44.1613 39.3792 45.0071C41.0618 45.8575 41.3872 47.5074 40.4436 50.3313L38.5565 55.9743C36.6739 61.6174 39.1096 65.5597 43.5858 65.8231C49.4332 66.1513 52.9752 62.0056 52.9752 62.0056Z" fill="#FF3636"/>
<path d="M46.0035 36.8318C49.3434 36.8318 52.0508 34.1397 52.0508 30.819C52.0508 27.4982 49.3434 24.8062 46.0035 24.8062C42.6637 24.8062 39.9562 27.4982 39.9562 30.819C39.9562 34.1397 42.6637 36.8318 46.0035 36.8318Z" fill="#FF3636"/>
</svg>
