<svg width="35" height="35" viewBox="0 0 35 35" fill="none" xmlns="http://www.w3.org/2000/svg">
<path d="M19.733 17.5L27.5487 9.68433C27.8399 9.38719 28.0021 8.98714 28 8.57111C27.9979 8.15508 27.8317 7.75669 27.5375 7.4625C27.2433 7.16832 26.8449 7.00212 26.4289 7.00002C26.0129 6.99792 25.6128 7.16009 25.3157 7.45128L17.5 15.267L9.68433 7.45128C9.38719 7.16009 8.98714 6.99792 8.57111 7.00002C8.15508 7.00212 7.75669 7.16832 7.4625 7.4625C7.16832 7.75669 7.00212 8.15508 7.00002 8.57111C6.99792 8.98714 7.16009 9.38719 7.45128 9.68433L15.267 17.5L7.45128 25.3157C7.16009 25.6128 6.99792 26.0129 7.00002 26.4289C7.00212 26.8449 7.16832 27.2433 7.4625 27.5375C7.75669 27.8317 8.15508 27.9979 8.57111 28C8.98714 28.0021 9.38719 27.8399 9.68433 27.5487L17.5 19.733L25.3157 27.5487C25.6128 27.8399 26.0129 28.0021 26.4289 28C26.8449 27.9979 27.2433 27.8317 27.5375 27.5375C27.8317 27.2433 27.9979 26.8449 28 26.4289C28.0021 26.0129 27.8399 25.6128 27.5487 25.3157L19.733 17.5Z" fill="black"/>
</svg>
