<svg width="45" height="45" viewBox="0 0 45 45" fill="none" xmlns="http://www.w3.org/2000/svg">
<path d="M37.2858 34.2206C37.2858 35.9616 36.7747 37.3364 35.7526 38.3447C34.7305 39.3531 33.3723 39.8573 31.6781 39.8573H13.322C11.6278 39.8573 10.2697 39.3531 9.24753 38.3447C8.22541 37.3364 7.71436 35.9616 7.71436 34.2206C7.71436 33.4516 7.73886 32.7008 7.78786 31.9681C7.83687 31.2354 7.93488 30.4446 8.0819 29.5958C8.22892 28.7471 8.41444 27.96 8.63846 27.2345C8.86249 26.5091 9.16352 25.8018 9.54157 25.1126C9.91961 24.4234 10.3537 23.8358 10.8437 23.3497C11.3338 22.8637 11.9323 22.4756 12.6394 22.1854C13.3465 21.8952 14.1271 21.7501 14.9812 21.7501C15.1072 21.7501 15.4012 21.9061 15.8633 22.2181C16.3254 22.53 16.8469 22.8782 17.428 23.2627C18.009 23.6472 18.7651 23.9954 19.6962 24.3073C20.6274 24.6193 21.562 24.7753 22.5001 24.7753C23.4382 24.7753 24.3728 24.6193 25.3039 24.3073C26.235 23.9954 26.9911 23.6472 27.5722 23.2627C28.1532 22.8782 28.6748 22.53 29.1368 22.2181C29.5989 21.9061 29.8929 21.7501 30.0189 21.7501C30.873 21.7501 31.6536 21.8952 32.3607 22.1854C33.0678 22.4756 33.6664 22.8637 34.1564 23.3497C34.6465 23.8358 35.0805 24.4234 35.4586 25.1126C35.8366 25.8018 36.1376 26.5091 36.3617 27.2345C36.5857 27.96 36.7712 28.7471 36.9182 29.5958C37.0653 30.4446 37.1633 31.2354 37.2123 31.9681C37.2613 32.7008 37.2858 33.4516 37.2858 34.2206ZM30.565 14.7859C30.565 17.0928 29.7774 19.0624 28.2022 20.6946C26.627 22.3269 24.7263 23.143 22.5001 23.143C20.2738 23.143 18.3731 22.3269 16.7979 20.6946C15.2227 19.0624 14.4351 17.0928 14.4351 14.7859C14.4351 12.4789 15.2227 10.5093 16.7979 8.87709C18.3731 7.24484 20.2738 6.42871 22.5001 6.42871C24.7263 6.42871 26.627 7.24484 28.2022 8.87709C29.7774 10.5093 30.565 12.4789 30.565 14.7859Z" fill="#F67F20"/>
</svg>
