<svg width="35" height="35" viewBox="0 0 35 35" fill="none" xmlns="http://www.w3.org/2000/svg">
<path d="M17.5 5C10.6075 5 5 10.6075 5 17.5C5 24.3925 10.6075 30 17.5 30C19.3325 30 21.2012 29.5362 23.0525 28.62L21.9462 26.3787C20.4412 27.1225 18.945 27.5 17.5 27.5C11.9862 27.5 7.5 23.0137 7.5 17.5C7.5 11.9862 11.9862 7.5 17.5 7.5C23.0137 7.5 27.5 11.9862 27.5 17.5V18.75C27.5 19.615 27.1087 21.25 25.625 21.25C23.88 21.25 23.7575 18.9762 23.75 18.75V12.5H21.25V12.5312C20.1741 11.7049 18.8566 11.2548 17.5 11.25C14.0537 11.25 11.25 14.0537 11.25 17.5C11.25 20.9462 14.0537 23.75 17.5 23.75C19.3125 23.75 20.935 22.9612 22.0775 21.7237C22.7325 22.8362 23.8375 23.75 25.625 23.75C28.4662 23.75 30 21.1737 30 18.75V17.5C30 10.6075 24.3925 5 17.5 5ZM17.5 21.25C15.4325 21.25 13.75 19.5675 13.75 17.5C13.75 15.4325 15.4325 13.75 17.5 13.75C19.5675 13.75 21.25 15.4325 21.25 17.5C21.25 19.5675 19.5675 21.25 17.5 21.25Z" fill="black"/>
</svg>
