<svg width="45" height="45" viewBox="0 0 45 45" fill="none" xmlns="http://www.w3.org/2000/svg">
<path d="M11.81 29.8891H33.1897C33.8477 29.8891 34.496 29.7461 35.0798 29.4723C35.6635 29.1985 36.1656 28.8018 36.5435 28.3159C36.9214 27.8299 37.164 27.269 37.2508 26.6806C37.3375 26.0922 37.2659 25.4936 37.042 24.9355L33.1473 15.2217C32.4822 13.063 31.0515 11.1603 29.0742 9.80453C27.0969 8.44877 24.6817 7.71462 22.1981 7.71436V7.71436C19.6126 7.71432 17.1045 8.50967 15.0877 9.9691C13.071 11.4285 11.6662 13.4648 11.1054 15.7416L7.89625 25.1043C7.70731 25.657 7.66483 26.2421 7.77224 26.8124C7.87965 27.3826 8.13394 27.9222 8.51466 28.3877C8.89538 28.8531 9.39189 29.2314 9.96425 29.4922C10.5366 29.753 11.1688 29.8889 11.81 29.8891V29.8891Z" fill="#F67F20"/>
<path d="M15.9492 32.3521C16.2626 33.7445 17.1 34.9964 18.3195 35.8955C19.539 36.7947 21.0656 37.2859 22.6406 37.2859C24.2156 37.2859 25.7422 36.7947 26.9617 35.8955C28.1812 34.9964 29.0186 33.7445 29.332 32.3521H15.9492Z" fill="#F67F20"/>
</svg>
