<svg width="45" height="45" viewBox="0 0 45 45" fill="none" xmlns="http://www.w3.org/2000/svg">
<path d="M16.4031 7.96684C16.4031 8.44994 16.4031 8.88957 16.4031 9.3321C16.4107 11.2984 17.689 12.5931 19.6285 12.596C21.5488 12.596 23.4685 12.596 25.3876 12.596C27.3061 12.596 28.5892 11.2964 28.5997 9.35432C28.5997 8.90986 28.5997 8.4654 28.5997 8.04027C28.6427 8.00742 28.6608 7.98133 28.679 7.98133C29.9898 7.98133 31.3025 7.94171 32.6114 7.98133C33.6537 8.01418 34.5155 8.86735 34.6712 9.91376C34.7001 10.1056 34.7145 10.2994 34.7142 10.4935C34.7142 18.582 34.7142 26.6709 34.7142 34.76C34.7142 35.6219 34.4448 36.3427 33.7388 36.8596C33.2964 37.1843 32.7939 37.2867 32.2541 37.2857C25.7574 37.2818 19.2607 37.2818 12.7639 37.2857C11.2353 37.2857 10.2866 36.3321 10.2856 34.7861C10.2876 31.2266 10.2885 27.6677 10.2885 24.1094C10.2885 19.554 10.2885 14.998 10.2885 10.4413C10.2885 9.14659 11.0395 8.20356 12.228 7.99872C12.4525 7.9695 12.6791 7.95916 12.9053 7.9678C13.9305 7.9678 14.9556 7.9678 15.9808 7.9678L16.4031 7.96684ZM22.5033 29.5772H29.7977C29.9047 29.5772 30.0127 29.5772 30.1197 29.5772C30.5907 29.5376 30.8888 29.2294 30.884 28.7917C30.884 28.3685 30.5879 28.0719 30.1331 28.0303C30.0261 28.0207 29.9181 28.0303 29.8111 28.0303C24.9367 28.0303 20.0619 28.0303 15.1868 28.0303C15.0206 28.0251 14.8543 28.0383 14.691 28.0699C14.5323 28.1131 14.392 28.2077 14.2917 28.3393C14.1913 28.4709 14.1365 28.6322 14.1357 28.7984C14.1348 28.9646 14.1879 29.1265 14.2869 29.2591C14.3858 29.3918 14.5251 29.488 14.6833 29.5328C14.8465 29.5658 15.0129 29.5801 15.1792 29.5753C17.6212 29.5785 20.0635 29.5792 22.5061 29.5772H22.5033ZM22.5033 23.3934H29.8321C29.9634 23.3972 30.0948 23.3936 30.2258 23.3828C30.4054 23.3662 30.5726 23.2825 30.6945 23.1479C30.8164 23.0134 30.8843 22.8377 30.885 22.6553C30.8984 22.1499 30.563 21.8581 29.9573 21.8572H15.0493C14.9658 21.8546 14.8822 21.8568 14.7989 21.8639C14.6009 21.8835 14.4187 21.9816 14.2921 22.1368C14.1655 22.292 14.1048 22.4917 14.1235 22.692C14.1541 23.1451 14.4684 23.3925 15.0321 23.3934C17.5231 23.3941 20.0141 23.3938 22.5052 23.3925L22.5033 23.3934ZM22.4737 17.2271H29.8742C29.9934 17.2321 30.1127 17.2288 30.2315 17.2174C30.4166 17.1934 30.5861 17.1003 30.7069 16.9564C30.8276 16.8125 30.8908 16.6282 30.884 16.4396C30.8858 16.2508 30.8156 16.0686 30.6881 15.9308C30.5605 15.793 30.3854 15.7101 30.199 15.6995C30.0805 15.6879 29.9611 15.6908 29.8417 15.6908H15.1496C15.0185 15.6869 14.8873 15.6917 14.7569 15.7053C14.584 15.7271 14.4247 15.8112 14.3082 15.9422C14.1917 16.0731 14.1258 16.2422 14.1225 16.4183C14.1034 16.9101 14.4416 17.2261 15.0034 17.2271C17.4944 17.2277 19.9852 17.2274 22.4756 17.2261L22.4737 17.2271Z" fill="#BBBBBB"/>
<path d="M22.5237 6.42857C23.5011 6.42857 24.4794 6.42857 25.4558 6.42857C26.4638 6.43534 27.08 7.06145 27.08 8.07984C27.08 8.53782 27.0848 8.99581 27.08 9.4538C27.0705 10.363 26.4695 11.0365 25.5743 11.0471C23.524 11.0703 21.4741 11.0703 19.4244 11.0471C18.5283 11.0374 17.9302 10.362 17.9302 9.44993C17.9302 8.99195 17.9302 8.53396 17.9302 8.07597C17.9302 7.05951 18.5435 6.43727 19.5544 6.42857C20.5461 6.42857 21.5349 6.42857 22.5237 6.42857Z" fill="#BBBBBB"/>
</svg>
