<svg width="49" height="49" viewBox="0 0 49 49" fill="none" xmlns="http://www.w3.org/2000/svg">
<path d="M38.8258 26.2432L38.204 25.8784C37.4639 25.4452 37.0218 24.6676 37.0218 23.8C37.0218 22.9324 37.4639 22.1548 38.204 21.7216L38.8258 21.3568C40.5233 20.3608 41.1037 18.1624 40.1237 16.4392L38.9416 14.3608C37.964 12.6412 35.7901 12.0508 34.0973 13.0432L33.4755 13.4068C32.7355 13.8412 31.8501 13.8412 31.1112 13.4068C30.3712 12.9724 29.9291 12.196 29.9291 11.3284V10.6C29.9291 8.6152 28.338 7 26.3828 7H24.0185C22.0633 7 20.4722 8.6152 20.4722 10.6V11.3296C20.4722 12.1972 20.03 12.9736 19.29 13.408C18.55 13.8412 17.6658 13.8424 16.9258 13.408L16.304 13.0432C14.6112 12.0508 12.4373 12.6412 11.4585 14.3608L10.2764 16.4392C9.2964 18.1624 9.87682 20.362 11.5743 21.3568L12.1973 21.7216C12.9373 22.1548 13.3794 22.9324 13.3794 23.8C13.3794 24.6676 12.9373 25.4452 12.1973 25.8784L11.5755 26.2432C9.878 27.238 9.29758 29.4376 10.2776 31.1608L11.4597 33.2392C12.4385 34.9588 14.6124 35.5492 16.304 34.5568L16.9258 34.1932C17.6658 33.7576 18.55 33.76 19.29 34.1932C20.03 34.6276 20.4722 35.404 20.4722 36.2716V37C20.4722 38.9848 22.0633 40.6 24.0185 40.6H26.3828C28.338 40.6 29.9291 38.9848 29.9291 37V36.2704C29.9291 35.4028 30.3712 34.6264 31.1112 34.192C31.8501 33.7588 32.7355 33.7576 33.4755 34.192L34.0973 34.5568C35.7901 35.548 37.964 34.9576 38.9416 33.2392L40.1237 31.1608C41.1037 29.4376 40.5233 27.238 38.8258 26.2432ZM25.2006 29.8C21.9415 29.8 19.29 27.1084 19.29 23.8C19.29 20.4916 21.9415 17.8 25.2006 17.8C28.4597 17.8 31.1112 20.4916 31.1112 23.8C31.1112 27.1084 28.4597 29.8 25.2006 29.8Z" fill="#F67F20"/>
</svg>
