<svg width="35" height="35" viewBox="0 0 35 35" fill="none" xmlns="http://www.w3.org/2000/svg">
<path d="M22.5042 25.6632C23.0424 26.1973 23.0427 27.0647 22.5042 27.5992C21.9663 28.1337 21.093 28.1335 20.5543 27.5992C20.5511 27.596 20.5487 27.5929 20.5459 27.5896L20.5419 27.593L11.4093 18.5258L11.4131 18.5223C11.1581 18.274 11 17.9287 11 17.5461C10.9997 17.1168 11.1993 16.7337 11.5114 16.4827L11.5019 16.4736L20.6346 7.40634L20.6385 7.41012C20.6414 7.40682 20.6438 7.40399 20.6469 7.401C21.1855 6.86633 22.0585 6.86633 22.597 7.401C23.1352 7.93503 23.1352 8.80182 22.597 9.33695C22.5937 9.3401 22.5905 9.3423 22.5874 9.34544L22.591 9.34922L14.336 17.5461L22.4993 25.651L22.4953 25.6543C22.4977 25.6577 22.501 25.6599 22.5042 25.6632Z" fill="black"/>
</svg>
