<svg width="45" height="45" viewBox="0 0 45 45" fill="none" xmlns="http://www.w3.org/2000/svg">
<path d="M22.4997 26.19C20.4584 26.19 18.8035 27.8459 18.8035 29.8886V37.2857H26.196V29.8886C26.196 27.8459 24.5411 26.19 22.4997 26.19Z" fill="#F67F20"/>
<path d="M28.6599 29.8873V37.2845H33.5883C35.6296 37.2845 37.2845 35.6285 37.2845 33.5859V22.341C37.2848 21.7005 37.0361 21.0851 36.5908 20.6249L26.1206 9.29857C24.2731 7.29845 21.1551 7.17564 19.1562 9.02424C19.0613 9.11208 18.9698 9.20356 18.8821 9.29857L8.43022 20.6212C7.97154 21.0833 7.71418 21.7082 7.71436 22.3595V33.5859C7.71436 35.6285 9.36925 37.2845 11.4106 37.2845H16.339V29.8873C16.362 26.5255 19.0746 23.7803 22.3496 23.7012C25.7343 23.6195 28.6341 26.4115 28.6599 29.8873Z" fill="#F67F20"/>
<path d="M22.4997 26.19C20.4584 26.19 18.8035 27.8459 18.8035 29.8886V37.2857H26.196V29.8886C26.196 27.8459 24.5411 26.19 22.4997 26.19Z" fill="#F67F20"/>
</svg>
