<svg width="45" height="45" viewBox="0 0 45 45" fill="none" xmlns="http://www.w3.org/2000/svg">
<path d="M11.81 29.889H33.1897C33.8477 29.889 34.496 29.7461 35.0798 29.4722C35.6635 29.1984 36.1656 28.8017 36.5435 28.3158C36.9214 27.8299 37.164 27.269 37.2508 26.6806C37.3375 26.0922 37.2659 25.4936 37.042 24.9354L33.1473 15.2217C32.4822 13.063 31.0515 11.1602 29.0742 9.80446C27.0969 8.44869 24.6817 7.71454 22.1981 7.71428V7.71428C19.6126 7.71424 17.1045 8.5096 15.0877 9.96902C13.071 11.4285 11.6662 13.4647 11.1054 15.7415L7.89625 25.1042C7.70731 25.657 7.66483 26.242 7.77224 26.8123C7.87965 27.3826 8.13394 27.9221 8.51466 28.3876C8.89538 28.853 9.39189 29.2314 9.96425 29.4921C10.5366 29.7529 11.1688 29.8888 11.81 29.889Z" fill="#BBBBBB"/>
<path d="M15.9492 32.3518C16.2626 33.7442 17.1 34.9961 18.3195 35.8953C19.539 36.7945 21.0656 37.2857 22.6406 37.2857C24.2156 37.2857 25.7422 36.7945 26.9617 35.8953C28.1812 34.9961 29.0186 33.7442 29.332 32.3518H15.9492Z" fill="#BBBBBB"/>
</svg>
