<svg width="35" height="35" viewBox="0 0 35 35" fill="none" xmlns="http://www.w3.org/2000/svg">
<path d="M28.0403 16.5411C27.7857 16.5411 27.5416 16.4401 27.3616 16.2604C27.1817 16.0807 27.0805 15.837 27.0805 15.5829C27.0785 13.5507 26.2689 11.6022 24.8295 10.1652C23.3901 8.72818 21.4384 7.91996 19.4027 7.91794C19.1482 7.91794 18.9041 7.81699 18.7241 7.63731C18.5441 7.45762 18.443 7.21392 18.443 6.95981C18.443 6.7057 18.5441 6.462 18.7241 6.28231C18.9041 6.10263 19.1482 6.00169 19.4027 6.00169C21.9472 6.00448 24.3867 7.01482 26.1859 8.81105C27.9852 10.6073 28.9972 13.0427 29 15.5829C29 15.837 28.8989 16.0807 28.7189 16.2604C28.5389 16.4401 28.2948 16.5411 28.0403 16.5411ZM25.1611 15.5829C25.1611 14.0583 24.5544 12.5961 23.4745 11.518C22.3946 10.4399 20.9299 9.83418 19.4027 9.83418C19.1482 9.83418 18.9041 9.93513 18.7241 10.1148C18.5441 10.2945 18.443 10.5382 18.443 10.7923C18.443 11.0464 18.5441 11.2901 18.7241 11.4698C18.9041 11.6495 19.1482 11.7504 19.4027 11.7504C20.4209 11.7504 21.3973 12.1542 22.1172 12.8729C22.8372 13.5917 23.2416 14.5665 23.2416 15.5829C23.2416 15.837 23.3427 16.0807 23.5227 16.2604C23.7027 16.4401 23.9468 16.5411 24.2014 16.5411C24.4559 16.5411 24.7 16.4401 24.88 16.2604C25.06 16.0807 25.1611 15.837 25.1611 15.5829ZM27.2562 27.2376L28.1295 26.2325C28.6854 25.6757 28.9975 24.9217 28.9975 24.1356C28.9975 23.3495 28.6854 22.5955 28.1295 22.0388C28.0998 22.0091 25.7907 20.2356 25.7907 20.2356C25.2365 19.7089 24.5003 19.4157 23.7352 19.4167C22.9701 19.4178 22.2348 19.7131 21.6821 20.2413L19.8528 21.7801C18.3597 21.1631 17.0033 20.2578 15.8616 19.116C14.7199 17.9743 13.8154 16.6186 13.2 15.1269L14.7356 13.3064C15.2651 12.7547 15.5612 12.0205 15.5625 11.2564C15.5637 10.4923 15.27 9.75718 14.7423 9.20374C14.7423 9.20374 12.9639 6.90136 12.9342 6.87166C12.3866 6.32146 11.6442 6.00841 10.8673 6.00017C10.0905 5.99192 9.34155 6.28913 8.78238 6.82759L7.6787 7.78571C1.15831 15.3377 15.1991 29.2467 23.0132 28.9967C23.8023 29.0012 24.5843 28.8479 25.313 28.5458C26.0418 28.2437 26.7025 27.7988 27.2562 27.2376Z" fill="black"/>
</svg>
