<svg width="45" height="45" viewBox="0 0 45 45" fill="none" xmlns="http://www.w3.org/2000/svg">
<path d="M37.2858 34.2204C37.2858 35.9615 36.7747 37.3362 35.7526 38.3446C34.7305 39.353 33.3723 39.8571 31.6781 39.8571H13.322C11.6278 39.8571 10.2697 39.353 9.24753 38.3446C8.22541 37.3362 7.71436 35.9615 7.71436 34.2204C7.71436 33.4515 7.73886 32.7006 7.78786 31.9679C7.83687 31.2352 7.93488 30.4445 8.0819 29.5957C8.22892 28.7469 8.41444 27.9598 8.63846 27.2344C8.86249 26.5089 9.16352 25.8016 9.54157 25.1124C9.91961 24.4233 10.3537 23.8357 10.8437 23.3496C11.3338 22.8636 11.9323 22.4754 12.6394 22.1853C13.3465 21.8951 14.1271 21.75 14.9812 21.75C15.1072 21.75 15.4012 21.906 15.8633 22.2179C16.3254 22.5299 16.8469 22.8781 17.428 23.2626C18.009 23.647 18.7651 23.9953 19.6962 24.3072C20.6274 24.6191 21.562 24.7751 22.5001 24.7751C23.4382 24.7751 24.3728 24.6191 25.3039 24.3072C26.235 23.9953 26.9911 23.647 27.5722 23.2626C28.1532 22.8781 28.6748 22.5299 29.1368 22.2179C29.5989 21.906 29.8929 21.75 30.0189 21.75C30.873 21.75 31.6536 21.8951 32.3607 22.1853C33.0678 22.4754 33.6664 22.8636 34.1564 23.3496C34.6465 23.8357 35.0805 24.4233 35.4586 25.1124C35.8366 25.8016 36.1376 26.5089 36.3617 27.2344C36.5857 27.9598 36.7712 28.7469 36.9182 29.5957C37.0653 30.4445 37.1633 31.2352 37.2123 31.9679C37.2613 32.7006 37.2858 33.4515 37.2858 34.2204ZM30.565 14.7857C30.565 17.0926 29.7774 19.0622 28.2022 20.6945C26.627 22.3267 24.7263 23.1429 22.5001 23.1429C20.2738 23.1429 18.3731 22.3267 16.7979 20.6945C15.2227 19.0622 14.4351 17.0926 14.4351 14.7857C14.4351 12.4788 15.2227 10.5092 16.7979 8.87696C18.3731 7.2447 20.2738 6.42857 22.5001 6.42857C24.7263 6.42857 26.627 7.2447 28.2022 8.87696C29.7774 10.5092 30.565 12.4788 30.565 14.7857Z" fill="#BBBBBB"/>
</svg>
