<svg width="31" height="31" viewBox="0 0 31 31" fill="none" xmlns="http://www.w3.org/2000/svg">
<path d="M15.4997 19.19C13.4584 19.19 11.8035 20.8459 11.8035 22.8886V30.2857H19.196V22.8886C19.196 20.8459 17.5411 19.19 15.4997 19.19Z" fill="#BDBDBD"/>
<path d="M21.6599 22.8873V30.2845H26.5883C28.6296 30.2845 30.2845 28.6285 30.2845 26.5859V15.341C30.2848 14.7005 30.0361 14.0851 29.5908 13.6249L19.1206 2.29857C17.2731 0.298448 14.1551 0.175643 12.1562 2.02424C12.0613 2.11208 11.9698 2.20356 11.8821 2.29857L1.43022 13.6212C0.971535 14.0833 0.714182 14.7082 0.714356 15.3595V26.5859C0.714356 28.6285 2.36925 30.2845 4.41063 30.2845H9.33897V22.8873C9.36201 19.5255 12.0746 16.7803 15.3496 16.7012C18.7343 16.6195 21.6341 19.4115 21.6599 22.8873Z" fill="#BDBDBD"/>
<path d="M15.4997 19.19C13.4584 19.19 11.8035 20.8459 11.8035 22.8886V30.2857H19.196V22.8886C19.196 20.8459 17.5411 19.19 15.4997 19.19Z" fill="#BDBDBD"/>
</svg>
