<svg width="45" height="45" viewBox="0 0 45 45" fill="none" xmlns="http://www.w3.org/2000/svg">
<g clip-path="url(#clip0_1_841)">
<mask id="mask0_1_841" style="mask-type:luminance" maskUnits="userSpaceOnUse" x="3" y="0" width="39" height="45">
<path d="M33.7188 26.5914L39.6674 32.688C40.5748 33.7322 41.1733 35.0084 41.396 36.3737C41.6187 37.739 41.4567 39.1393 40.9281 40.4177C40.3995 41.696 39.5254 42.8019 38.4035 43.6112C37.2817 44.4206 35.9566 44.9015 34.5768 45H16.1682C15.9236 44.993 15.6848 44.9234 15.4747 44.798C15.2645 44.6726 15.09 44.4955 14.9676 44.2836C14.8453 44.0717 14.7792 43.8319 14.7757 43.5872C14.7722 43.3425 14.8314 43.101 14.9476 42.8857L30.9072 26.5914C31.3096 26.2798 31.8041 26.1108 32.313 26.1108C32.8219 26.1108 33.3164 26.2798 33.7188 26.5914ZM11.2811 18.4086L5.33255 12.312C4.42519 11.2678 3.82662 9.99156 3.60395 8.62629C3.38127 7.26101 3.5433 5.8607 4.07185 4.58235C4.60041 3.30399 5.4746 2.19814 6.59641 1.38877C7.71823 0.579392 9.04332 0.0984981 10.4231 0L28.8318 0C29.0764 0.00691464 29.3153 0.076352 29.5255 0.201699C29.7358 0.327047 29.9104 0.504131 30.0329 0.716088C30.1553 0.928045 30.2215 1.16782 30.225 1.41257C30.2286 1.65733 30.1694 1.89891 30.0531 2.11433L14.0927 18.4086C13.6903 18.7202 13.1958 18.8892 12.6869 18.8892C12.178 18.8892 11.6835 18.7202 11.2811 18.4086Z" fill="white"/>
</mask>
<g mask="url(#mask0_1_841)">
<path d="M42.006 0H2.9939V45H42.006V0Z" fill="#F67F20"/>
</g>
<path fill-rule="evenodd" clip-rule="evenodd" d="M26.5914 11.2811L32.688 5.33258C33.7322 4.42522 35.0084 3.82665 36.3737 3.60398C37.739 3.3813 39.1393 3.54333 40.4177 4.07188C41.696 4.60044 42.8019 5.47463 43.6112 6.59644C44.4206 7.71826 44.9015 9.04335 45 10.4232V28.8318C44.9931 29.0765 44.9237 29.3153 44.7983 29.5256C44.673 29.7358 44.4959 29.9105 44.2839 30.0329C44.072 30.1554 43.8322 30.2215 43.5874 30.225C43.3427 30.2286 43.1011 30.1694 42.8857 30.0532L26.5914 14.0928C26.2798 13.6904 26.1108 13.1959 26.1108 12.687C26.1108 12.1781 26.2798 11.6836 26.5914 11.2811ZM18.4086 33.7189L12.312 39.6674C11.2678 40.5748 9.99156 41.1734 8.62629 41.396C7.26101 41.6187 5.8607 41.4567 4.58235 40.9281C3.30399 40.3996 2.19814 39.5254 1.38877 38.4036C0.579392 37.2817 0.0984981 35.9567 0 34.5769L0 16.1682C0.00704491 15.9236 0.076577 15.6849 0.201978 15.4747C0.327379 15.2646 0.504476 15.09 0.716412 14.9677C0.928348 14.8453 1.16807 14.7792 1.41276 14.7757C1.65745 14.7722 1.89897 14.8314 2.11433 14.9476L18.4086 30.9072C18.7202 31.3097 18.8892 31.8041 18.8892 32.313C18.8892 32.822 18.7202 33.3164 18.4086 33.7189Z" fill="#F67F20"/>
<mask id="mask1_1_841" style="mask-type:luminance" maskUnits="userSpaceOnUse" x="0" y="3" width="45" height="39">
<path d="M26.5914 11.2811L32.688 5.33258C33.7322 4.42522 35.0084 3.82665 36.3737 3.60398C37.739 3.3813 39.1393 3.54333 40.4177 4.07188C41.696 4.60044 42.8019 5.47463 43.6112 6.59644C44.4206 7.71826 44.9015 9.04335 45 10.4232V28.8318C44.9931 29.0765 44.9237 29.3153 44.7983 29.5256C44.673 29.7358 44.4959 29.9105 44.2839 30.0329C44.072 30.1554 43.8322 30.2215 43.5874 30.225C43.3427 30.2286 43.1011 30.1694 42.8857 30.0532L26.5914 14.0928C26.2798 13.6904 26.1108 13.1959 26.1108 12.687C26.1108 12.1781 26.2798 11.6836 26.5914 11.2811ZM18.4086 33.7189L12.312 39.6674C11.2678 40.5748 9.99156 41.1734 8.62629 41.396C7.26101 41.6187 5.8607 41.4567 4.58235 40.9281C3.30399 40.3996 2.19814 39.5254 1.38877 38.4036C0.579392 37.2817 0.0984981 35.9567 0 34.5769L0 16.1682C0.00704491 15.9236 0.076577 15.6849 0.201978 15.4747C0.327379 15.2646 0.504476 15.09 0.716412 14.9677C0.928348 14.8453 1.16807 14.7792 1.41276 14.7757C1.65745 14.7722 1.89897 14.8314 2.11433 14.9476L18.4086 30.9072C18.7202 31.3097 18.8892 31.8041 18.8892 32.313C18.8892 32.822 18.7202 33.3164 18.4086 33.7189Z" fill="white"/>
</mask>
<g mask="url(#mask1_1_841)">
<path d="M45 2.99393H0V42.0061H45V2.99393Z" fill="#F67F20"/>
</g>
</g>
<defs>
<clipPath id="clip0_1_841">
<rect width="45" height="45" fill="white"/>
</clipPath>
</defs>
</svg>
