<svg width="35" height="35" viewBox="0 0 35 35" fill="none" xmlns="http://www.w3.org/2000/svg">
<path d="M28.94 14.9285C28.501 15.3999 28.0752 15.8714 27.631 16.3237C26.4376 17.5419 25.2311 18.7491 24.0298 19.9591C23.8405 20.1498 23.6381 20.3324 23.4646 20.5422C23.3963 20.6267 23.3516 20.7766 23.37 20.8829C23.8063 23.5726 24.2506 26.2596 24.6948 28.9493C24.6974 28.9602 24.6948 28.9738 24.6922 28.9929C24.6869 29.0174 24.5765 28.9765 24.4425 28.9029C23.9772 28.6522 23.5198 28.4042 23.0625 28.1535C21.2513 27.167 19.4376 26.1805 17.6317 25.1859C17.474 25.0987 17.3662 25.1395 17.2296 25.2131C14.9663 26.4503 12.7031 27.6848 10.4372 28.9193C10.3978 28.9411 10.3584 28.9602 10.3163 28.9792C10.248 29.0119 10.2138 28.9111 10.2401 28.7558C10.3426 28.1208 10.4399 27.5022 10.5424 26.8863C10.8762 24.8697 11.2179 22.8559 11.5439 20.8393C11.5596 20.7439 11.4939 20.6022 11.423 20.5286C10.248 19.3296 9.05721 18.1496 7.89273 16.9396C7.25661 16.2774 6.65203 15.5825 6.05796 14.9203C5.95544 14.8058 5.99224 14.6941 6.14208 14.6696C6.45488 14.6205 6.81763 14.5633 7.18301 14.5088C8.77332 14.269 10.3663 14.0292 11.9566 13.7866C12.4902 13.7049 13.0212 13.6095 13.5574 13.5523C13.7598 13.5305 13.8571 13.4433 13.9412 13.2634C15.0504 10.9171 16.1676 8.57347 17.2821 6.22986C17.3058 6.17808 17.3321 6.12903 17.361 6.07453C17.4057 5.99005 17.474 5.9737 17.5161 6.04455C17.5424 6.08815 17.566 6.12903 17.5871 6.17263C18.7147 8.54077 19.845 10.9089 20.9674 13.2825C21.0489 13.4542 21.1409 13.5278 21.3302 13.555C23.6644 13.9011 25.996 14.2581 28.3302 14.6124C28.5063 14.6396 28.6824 14.6641 28.8585 14.6887C29.0084 14.705 29.0452 14.814 28.94 14.9285Z" fill="black"/>
</svg>
