<svg width="32" height="32" viewBox="0 0 32 32" fill="none" xmlns="http://www.w3.org/2000/svg">
<g id="uil:cart">
<path id="Vector" d="M25.3334 9.33317H21.3334V7.99984C21.3334 6.58535 20.7715 5.2288 19.7713 4.2286C18.7711 3.22841 17.4145 2.6665 16 2.6665C14.5856 2.6665 13.229 3.22841 12.2288 4.2286C11.2286 5.2288 10.6667 6.58535 10.6667 7.99984V9.33317H6.66671C6.31309 9.33317 5.97395 9.47365 5.7239 9.72369C5.47385 9.97374 5.33337 10.3129 5.33337 10.6665V25.3332C5.33337 26.394 5.7548 27.4115 6.50495 28.1616C7.25509 28.9117 8.27251 29.3332 9.33337 29.3332H22.6667C23.7276 29.3332 24.745 28.9117 25.4951 28.1616C26.2453 27.4115 26.6667 26.394 26.6667 25.3332V10.6665C26.6667 10.3129 26.5262 9.97374 26.2762 9.72369C26.0261 9.47365 25.687 9.33317 25.3334 9.33317ZM13.3334 7.99984C13.3334 7.29259 13.6143 6.61432 14.1144 6.11422C14.6145 5.61412 15.2928 5.33317 16 5.33317C16.7073 5.33317 17.3856 5.61412 17.8857 6.11422C18.3858 6.61432 18.6667 7.29259 18.6667 7.99984V9.33317H13.3334V7.99984ZM24 25.3332C24 25.6868 23.8596 26.0259 23.6095 26.276C23.3595 26.526 23.0203 26.6665 22.6667 26.6665H9.33337C8.97975 26.6665 8.64061 26.526 8.39057 26.276C8.14052 26.0259 8.00004 25.6868 8.00004 25.3332V11.9998H10.6667V13.3332C10.6667 13.6868 10.8072 14.0259 11.0572 14.276C11.3073 14.526 11.6464 14.6665 12 14.6665C12.3537 14.6665 12.6928 14.526 12.9428 14.276C13.1929 14.0259 13.3334 13.6868 13.3334 13.3332V11.9998H18.6667V13.3332C18.6667 13.6868 18.8072 14.0259 19.0572 14.276C19.3073 14.526 19.6464 14.6665 20 14.6665C20.3537 14.6665 20.6928 14.526 20.9429 14.276C21.1929 14.0259 21.3334 13.6868 21.3334 13.3332V11.9998H24V25.3332Z" fill="#BBBBBB"/>
</g>
</svg>
