<svg width="25" height="25" viewBox="0 0 25 25" fill="none" xmlns="http://www.w3.org/2000/svg">
<path fill-rule="evenodd" clip-rule="evenodd" d="M17.8637 10.1818C17.8637 14.4244 14.4244 17.8637 10.1818 17.8637C5.93927 17.8637 2.5 14.4244 2.5 10.1818C2.5 5.93927 5.93927 2.5 10.1818 2.5C14.4244 2.5 17.8637 5.93927 17.8637 10.1818ZM18.2098 16.4452C19.5594 14.7179 20.3637 12.5438 20.3637 10.1818C20.3637 4.55856 15.8051 0 10.1818 0C4.55856 0 0 4.55856 0 10.1818C0 15.8051 4.55856 20.3637 10.1818 20.3637C12.5433 20.3637 14.717 19.5597 16.4442 18.2106C16.4583 18.2262 16.4729 18.2416 16.4879 18.2566L22.0243 23.793C22.5124 24.2811 23.3039 24.2811 23.7921 23.793C24.2802 23.3048 24.2802 22.5134 23.7921 22.0252L18.2557 16.4888C18.2407 16.4738 18.2254 16.4593 18.2098 16.4452Z" fill="#BBBBBB"/>
</svg>
