<svg width="35" height="35" viewBox="0 0 35 35" fill="none" xmlns="http://www.w3.org/2000/svg">
<path d="M11 26H19C21.757 26 24 23.4766 24 20.375V13.625C24 10.5234 21.757 8 19 8H11C8.243 8 6 10.5234 6 13.625V20.375C6 23.4766 8.243 26 11 26ZM30 12.8521V21.086C30 21.9376 29.58 22.7026 28.903 23.0829C28.62 23.2415 28.316 23.3202 28.014 23.3202C27.593 23.3202 27.177 23.1684 26.825 22.8714C26.788 22.8399 26 21.9601 26 21.9601V11.987C26 11.987 26.786 11.0994 26.825 11.0667C27.429 10.556 28.224 10.4739 28.903 10.8553C29.582 11.2366 30 12.0005 30 12.8521Z" fill="black"/>
</svg>
