<svg width="35" height="35" viewBox="0 0 35 35" fill="none" xmlns="http://www.w3.org/2000/svg">
<path d="M18.0003 8.63022C18.7423 8.63022 19.4803 9.09577 20.0425 10.0269L27.862 22.986C28.9876 24.8469 28.1186 26.3698 25.9362 26.3698H10.0643C7.88195 26.3698 7.01296 24.8456 8.13854 22.986L15.9581 10.0269C16.5202 9.09577 17.2583 8.63022 18.0003 8.63022ZM18.0003 6C16.2861 6 14.7174 6.97318 13.6897 8.67099L5.87019 21.6327C4.83058 23.3542 4.71683 25.1901 5.55936 26.6696C6.4019 28.1491 8.04464 29 10.0643 29H25.9362C27.9559 29 29.6 28.1504 30.4412 26.6709C31.2824 25.1914 31.17 23.3555 30.1304 21.6341L22.3108 8.67494C21.2831 6.97318 19.7144 6 18.0003 6Z" fill="black"/>
<path d="M19.9847 23.408C19.9847 23.408 19.0443 23.8828 18.5629 23.6474C18.0841 23.4054 17.9888 22.9359 18.26 22.1324L18.797 20.5266C19.33 18.9209 18.6369 17.7965 17.3659 17.7241C15.702 17.6321 14.6941 18.8104 14.6941 18.8104C14.6941 18.8104 15.6332 18.3304 16.1159 18.5711C16.5947 18.813 16.6873 19.2825 16.4188 20.0861L15.8818 21.6918C15.3462 23.2976 16.0392 24.4194 17.313 24.4943C18.9769 24.5877 19.9847 23.408 19.9847 23.408Z" fill="black"/>
<path d="M18.001 16.2447C18.9514 16.2447 19.7218 15.4787 19.7218 14.5337C19.7218 13.5888 18.9514 12.8228 18.001 12.8228C17.0507 12.8228 16.2803 13.5888 16.2803 14.5337C16.2803 15.4787 17.0507 16.2447 18.001 16.2447Z" fill="black"/>
</svg>
