<svg width="35" height="35" viewBox="0 0 35 35" fill="none" xmlns="http://www.w3.org/2000/svg">
<path d="M26.7 10.6667H23.7261L20.613 7.35811C20.5064 7.24439 20.3797 7.15421 20.2402 7.09275C20.1006 7.03129 19.951 6.99977 19.8 7H15.2C15.049 6.99977 14.8994 7.03129 14.7598 7.09275C14.6203 7.15421 14.4936 7.24439 14.387 7.35811L11.2739 10.6667H8.3C7.03155 10.6667 6 11.763 6 13.1111V26.5556C6 27.9037 7.03155 29 8.3 29H26.7C27.9685 29 29 27.9037 29 26.5556V13.1111C29 11.763 27.9685 10.6667 26.7 10.6667ZM17.5 25.3333C14.3835 25.3333 11.75 22.5344 11.75 19.2222C11.75 15.9088 14.3835 13.1111 17.5 13.1111C20.6165 13.1111 23.25 15.9088 23.25 19.2222C23.25 22.5344 20.6165 25.3333 17.5 25.3333Z" fill="black"/>
<path d="M18.65 15.5557H16.35V18.0001H14.05V20.4446H16.35V22.889H18.65V20.4446H20.95V18.0001H18.65V15.5557Z" fill="black"/>
</svg>
