<svg width="81" height="81" viewBox="0 0 81 81" fill="none" xmlns="http://www.w3.org/2000/svg">
<path d="M61.7915 24.6859H54.909L47.7045 17.029C47.4578 16.7658 47.1645 16.5571 46.8416 16.4148C46.5187 16.2726 46.1724 16.1997 45.8229 16.2002H35.1772C34.8276 16.1997 34.4814 16.2726 34.1585 16.4148C33.8355 16.5571 33.5423 16.7658 33.2955 17.029L26.0911 24.6859H19.2086C16.273 24.6859 13.8857 27.2231 13.8857 30.3431V61.4573C13.8857 64.5773 16.273 67.1145 19.2086 67.1145H61.7915C64.727 67.1145 67.1143 64.5773 67.1143 61.4573V30.3431C67.1143 27.2231 64.727 24.6859 61.7915 24.6859ZM40.5 58.6288C33.2876 58.6288 27.1929 52.1513 27.1929 44.4859C27.1929 36.8177 33.2876 30.3431 40.5 30.3431C47.7125 30.3431 53.8072 36.8177 53.8072 44.4859C53.8072 52.1513 47.7125 58.6288 40.5 58.6288Z" fill="#BBBBBB"/>
<path d="M43.1615 36H37.8386V41.6571H32.5157V47.3143H37.8386V52.9714H43.1615V47.3143H48.4843V41.6571H43.1615V36Z" fill="#BBBBBB"/>
</svg>
