<svg width="35" height="35" viewBox="0 0 35 35" fill="none" xmlns="http://www.w3.org/2000/svg">
<path fill-rule="evenodd" clip-rule="evenodd" d="M8.39935 16.2938C7.62722 16.2938 7 16.9262 7 17.7062V27.5876C7 28.3675 7.62722 29 8.39935 29H11.1994C11.973 29 12.6002 28.3675 12.6002 27.5876V17.7062C12.6002 16.9262 11.973 16.2938 11.1994 16.2938H8.39935ZM16.1003 5C15.3268 5 14.6996 5.63246 14.6996 6.41243V27.5876C14.6996 28.3675 15.3268 29 16.1003 29H18.8997C19.6725 29 20.2997 28.3675 20.2997 27.5876V6.41243C20.2997 5.63246 19.6725 5 18.8997 5H16.1003ZM23.8006 10.6469C23.027 10.6469 22.3998 11.2793 22.3998 12.0593V27.5876C22.3998 28.3675 23.027 29 23.8006 29H26.6007C27.3728 29 28 28.3675 28 27.5876V12.0593C28 11.2793 27.3728 10.6469 26.6007 10.6469H23.8006Z" fill="black"/>
</svg>
