<svg width="45" height="45" viewBox="0 0 45 45" fill="none" xmlns="http://www.w3.org/2000/svg">
<path d="M12.6431 7.71436H16.3396C19.0616 7.71436 21.2683 9.92102 21.2683 12.6431V16.3396C21.2683 19.0616 19.0616 21.2683 16.3396 21.2683H12.6431C9.92102 21.2684 7.71436 19.0617 7.71436 16.3396V12.6431C7.71436 9.92102 9.92102 7.71436 12.6431 7.71436Z" fill="#F67F20"/>
<path d="M28.6614 7.71436H32.3579C35.0799 7.71436 37.2866 9.92102 37.2866 12.6431V16.3396C37.2866 19.0616 35.0799 21.2683 32.3579 21.2683H28.6614C25.9393 21.2683 23.7327 19.0616 23.7327 16.3396V12.6431C23.7326 9.92102 25.9393 7.71436 28.6614 7.71436Z" fill="#F67F20"/>
<path d="M12.6431 23.7317H16.3396C19.0616 23.7317 21.2683 25.9383 21.2683 28.6604V32.3569C21.2683 35.079 19.0616 37.2856 16.3396 37.2856H12.6431C9.92102 37.2857 7.71436 35.079 7.71436 32.357V28.6604C7.71436 25.9383 9.92102 23.7317 12.6431 23.7317Z" fill="#F67F20"/>
<path d="M28.6614 23.7317H32.3579C35.0799 23.7317 37.2866 25.9383 37.2866 28.6604V32.3569C37.2866 35.079 35.0799 37.2857 32.3579 37.2857H28.6614C25.9393 37.2857 23.7327 35.079 23.7327 32.357V28.6604C23.7326 25.9383 25.9393 23.7317 28.6614 23.7317Z" fill="#F67F20"/>
</svg>
