<svg width="35" height="35" viewBox="0 0 35 35" fill="none" xmlns="http://www.w3.org/2000/svg">
<path d="M7 25.8219C7 27.0199 7.98022 28.0001 9.17826 28.0001H12.01L7 22.9902V25.8219Z" fill="#12991F"/>
<path d="M28.3466 10.1386L24.8613 6.65347C23.99 5.78218 22.6831 5.78218 21.8118 6.65347L21.594 6.87129C21.1583 7.30693 21.1583 7.9604 21.594 8.39604L26.6039 13.406C27.0396 13.8416 27.6931 13.8416 28.1287 13.406L28.3466 13.1881C29.2179 12.3168 29.2179 11.0099 28.3466 10.1386Z" fill="#12991F"/>
<path d="M20.0694 9.92097C19.6337 9.48533 18.9802 9.48533 18.5446 9.92097L8.6335 19.8319C8.08894 20.3764 8.08894 21.0299 8.52459 21.4655L13.5346 26.4754C13.9702 26.9111 14.6237 26.9111 15.0594 26.4754L24.9705 16.5645C25.4061 16.1289 25.4061 15.4754 24.9705 15.0398L20.0694 9.92097Z" fill="#12991F"/>
</svg>
