<svg width="35" height="35" viewBox="0 0 35 35" fill="none" xmlns="http://www.w3.org/2000/svg">
<path d="M17.5 6C14.451 6.00331 11.5279 7.21991 9.37191 9.38286C7.21596 11.5458 6.0033 14.4784 6 17.5373C6.575 32.8243 28.425 32.8175 29 17.5373C28.9967 14.4784 27.784 11.5458 25.6281 9.38286C23.4721 7.21991 20.549 6.00331 17.5 6V6ZM20.8542 12.7301C22.7363 12.7561 22.7363 17.5114 20.8542 17.5373C18.972 17.5114 18.972 12.7561 20.8542 12.7301ZM14.1458 12.7301C16.028 12.7561 16.028 17.5114 14.1458 17.5373C12.2637 17.5114 12.2637 12.7561 14.1458 12.7301ZM23.0986 20.9427C22.5355 21.9387 21.7225 22.7695 20.7404 23.3527C19.7583 23.9359 18.6412 24.2513 17.5 24.2674C16.358 24.2514 15.2401 23.9362 14.257 23.353C13.2739 22.7698 12.4599 21.9389 11.8957 20.9427C11.7938 20.7832 11.7412 20.597 11.7444 20.4075C11.7477 20.2181 11.8067 20.0338 11.914 19.8779C12.0213 19.7219 12.1721 19.6013 12.3475 19.5311C12.523 19.4609 12.7152 19.4442 12.9 19.4833C14.3736 20.0403 15.9266 20.3571 17.5 20.4216C19.0708 20.3563 20.6211 20.0395 22.0923 19.4833C22.2773 19.4438 22.4698 19.46 22.6456 19.53C22.8213 19.6 22.9725 19.7207 23.0801 19.8767C23.1877 20.0327 23.2468 20.2172 23.2501 20.4069C23.2534 20.5966 23.2007 20.7831 23.0986 20.9427Z" fill="black"/>
</svg>
