<svg width="81" height="81" viewBox="0 0 81 81" fill="none" xmlns="http://www.w3.org/2000/svg">
<path d="M59.8559 44.4343V52.0715H67.1143V57.1629H59.8559V64.8H55.0169V57.1629H47.7585V52.0715H55.0169V44.4343H59.8559ZM59.8752 13.8857C61.2011 13.8857 62.2754 15.0186 62.2754 16.4136V40.2135C60.7212 39.6359 59.0847 39.3415 57.4364 39.3429V18.9772H18.7247L18.7271 54.6172L41.2089 30.9598C41.625 30.5207 42.1792 30.2565 42.7673 30.2172C43.3555 30.1778 43.9371 30.3659 44.4027 30.746L44.6277 30.9624L53.2071 39.9997C51.3312 40.6011 49.5904 41.5961 48.0898 42.9246C46.5892 44.2531 45.3598 45.8876 44.4758 47.7295C43.5918 49.5714 43.0715 51.5826 42.9463 53.6419C42.821 55.7011 43.0934 57.7657 43.747 59.7111L16.2859 59.7086C15.6491 59.7079 15.0386 59.4413 14.5886 58.9673C14.1385 58.4933 13.8857 57.8507 13.8857 57.1807V16.4136C13.8902 15.7451 14.1444 15.1052 14.5935 14.6322C15.0426 14.1592 15.6505 13.8911 16.2859 13.8857H59.8752ZM28.4026 24.0686C29.686 24.0686 30.9168 24.605 31.8243 25.5598C32.7318 26.5147 33.2416 27.8097 33.2416 29.16C33.2416 30.5104 32.7318 31.8054 31.8243 32.7602C30.9168 33.715 29.686 34.2515 28.4026 34.2515C27.1193 34.2515 25.8884 33.715 24.981 32.7602C24.0735 31.8054 23.5637 30.5104 23.5637 29.16C23.5637 27.8097 24.0735 26.5147 24.981 25.5598C25.8884 24.605 27.1193 24.0686 28.4026 24.0686Z" fill="#BBBBBB"/>
</svg>
