<svg width="35" height="35" viewBox="0 0 35 35" fill="none" xmlns="http://www.w3.org/2000/svg">
<path d="M25.8636 19.2V22.5H29V24.7H25.8636V28H23.7727V24.7H20.6364V22.5H23.7727V19.2H25.8636ZM25.872 6C26.4449 6 26.9091 6.4895 26.9091 7.0923V17.3762C26.2375 17.1266 25.5304 16.9994 24.8182 17V8.2H8.09091L8.09195 23.6L17.8063 13.3777C17.9861 13.1879 18.2256 13.0738 18.4797 13.0568C18.7338 13.0398 18.9851 13.121 19.1863 13.2853L19.2835 13.3788L22.9907 17.2838C22.1801 17.5437 21.4279 17.9736 20.7795 18.5477C20.1311 19.1217 19.5999 19.8279 19.2179 20.6238C18.836 21.4197 18.6111 22.2888 18.557 23.1786C18.5029 24.0684 18.6206 24.9605 18.903 25.8011L7.03709 25.8C6.76194 25.7997 6.49816 25.6845 6.30369 25.4797C6.10923 25.2749 6 24.9972 6 24.7077V7.0923C6.00191 6.80342 6.11176 6.52692 6.30581 6.32254C6.49986 6.11816 6.76253 6.0023 7.03709 6H25.872ZM12.2727 10.4C12.8273 10.4 13.3591 10.6318 13.7512 11.0444C14.1433 11.4569 14.3636 12.0165 14.3636 12.6C14.3636 13.1835 14.1433 13.7431 13.7512 14.1556C13.3591 14.5682 12.8273 14.8 12.2727 14.8C11.7182 14.8 11.1864 14.5682 10.7942 14.1556C10.4021 13.7431 10.1818 13.1835 10.1818 12.6C10.1818 12.0165 10.4021 11.4569 10.7942 11.0444C11.1864 10.6318 11.7182 10.4 12.2727 10.4Z" fill="black"/>
</svg>
