<svg width="45" height="45" viewBox="0 0 45 45" fill="none" xmlns="http://www.w3.org/2000/svg">
<path d="M22.4997 26.1899C20.4584 26.1899 18.8035 27.8459 18.8035 29.8885V37.2857H26.196V29.8885C26.196 27.8459 24.5411 26.1899 22.4997 26.1899Z" fill="#BBBBBB"/>
<path d="M28.6599 29.8874V37.2845H33.5883C35.6296 37.2845 37.2845 35.6286 37.2845 33.5859V22.3411C37.2848 21.7006 37.0361 21.0851 36.5908 20.6249L26.1206 9.29863C24.2731 7.29851 21.1551 7.1757 19.1562 9.0243C19.0613 9.11214 18.9698 9.20362 18.8821 9.29863L8.43022 20.6212C7.97154 21.0833 7.71418 21.7083 7.71436 22.3596V33.5859C7.71436 35.6286 9.36925 37.2845 11.4106 37.2845H16.339V29.8874C16.362 26.5256 19.0746 23.7803 22.3496 23.7013C25.7343 23.6196 28.6341 26.4116 28.6599 29.8874Z" fill="#BBBBBB"/>
<path d="M22.4997 26.1899C20.4584 26.1899 18.8035 27.8459 18.8035 29.8885V37.2857H26.196V29.8885C26.196 27.8459 24.5411 26.1899 22.4997 26.1899Z" fill="#BBBBBB"/>
</svg>
