<svg width="35" height="35" viewBox="0 0 35 35" fill="none" xmlns="http://www.w3.org/2000/svg">
<path d="M9.28546 9.93917H25.714C25.9059 9.93908 26.0977 9.95153 26.288 9.97645C26.2235 9.51326 26.0679 9.06823 25.8306 8.66819C25.5934 8.26815 25.2794 7.92139 24.9075 7.64881C24.5357 7.37623 24.1137 7.18349 23.6671 7.08219C23.2204 6.98089 22.7584 6.97315 22.3087 7.05942L8.79773 9.41835H8.78233C7.93425 9.5842 7.18007 10.0749 6.67383 10.7902C7.43652 10.2355 8.34951 9.93793 9.28546 9.93917Z" fill="black"/>
<path d="M25.7143 11.1992H9.28571C8.41458 11.2002 7.5794 11.5545 6.96341 12.1845C6.34743 12.8144 6.00095 13.6685 6 14.5594V24.6398C6.00095 25.5307 6.34743 26.3848 6.96341 27.0147C7.5794 27.6447 8.41458 27.999 9.28571 28H25.7143C26.5854 27.999 27.4206 27.6447 28.0366 27.0147C28.6526 26.3848 28.9991 25.5307 29 24.6398V14.5594C28.9991 13.6685 28.6526 12.8144 28.0366 12.1845C27.4206 11.5545 26.5854 11.2002 25.7143 11.1992ZM23.2757 21.2797C22.9507 21.2797 22.6331 21.1811 22.3629 20.9965C22.0928 20.8119 21.8822 20.5495 21.7579 20.2425C21.6335 19.9355 21.601 19.5977 21.6644 19.2718C21.7278 18.9459 21.8842 18.6466 22.114 18.4116C22.3438 18.1766 22.6365 18.0166 22.9552 17.9518C23.2738 17.887 23.6042 17.9202 23.9044 18.0474C24.2046 18.1746 24.4611 18.3899 24.6417 18.6662C24.8222 18.9425 24.9185 19.2673 24.9185 19.5996C24.9185 20.0452 24.7454 20.4725 24.4373 20.7876C24.1292 21.1027 23.7114 21.2797 23.2757 21.2797Z" fill="black"/>
<path d="M6.02563 18.1034V12.8794C6.02563 11.7417 6.64171 9.83428 8.77999 9.42109C10.5948 9.073 12.3917 9.073 12.3917 9.073C12.3917 9.073 13.5725 9.91304 12.5971 9.91304C11.6216 9.91304 11.6473 11.1993 12.5971 11.1993C13.5468 11.1993 12.5971 12.4331 12.5971 12.4331L8.77229 16.8696L6.02563 18.1034Z" fill="black"/>
</svg>
