<svg width="35" height="35" viewBox="0 0 35 35" fill="none" xmlns="http://www.w3.org/2000/svg">
<path d="M11.4964 25.6632C10.9583 26.1973 10.958 27.0647 11.4964 27.5992C12.0343 28.1337 12.9076 28.1335 13.4462 27.5992C13.4494 27.596 13.4518 27.5929 13.4546 27.5896L13.4586 27.593L22.5907 18.5258L22.5869 18.5223C22.8419 18.274 23 17.9287 23 17.5461C23.0003 17.1168 22.8008 16.7337 22.4886 16.4827L22.4981 16.4736L13.3659 7.40634L13.362 7.41012C13.3591 7.40682 13.3568 7.40399 13.3536 7.401C12.8151 6.86633 11.9421 6.86633 11.4036 7.401C10.8655 7.93503 10.8655 8.80182 11.4036 9.33695C11.407 9.3401 11.4101 9.3423 11.4133 9.34544L11.4096 9.34922L19.6642 17.5461L11.5013 25.651L11.5053 25.6543C11.5029 25.6577 11.4996 25.6599 11.4964 25.6632Z" fill="black"/>
</svg>
