<svg width="29" height="29" viewBox="0 0 29 29" fill="none" xmlns="http://www.w3.org/2000/svg">
<path d="M7.61087 19.2618H21.3889C21.8129 19.2618 22.2307 19.1697 22.6069 18.9932C22.9831 18.8167 23.3067 18.5611 23.5502 18.248C23.7938 17.9348 23.9501 17.5733 24.006 17.1942C24.0619 16.815 24.0158 16.4292 23.8715 16.0695L21.3616 9.80952C20.9329 8.41836 20.011 7.19215 18.7367 6.31844C17.4624 5.44472 15.9059 4.9716 14.3054 4.97144V4.97144C12.6392 4.97141 11.0228 5.48397 9.72316 6.42449C8.42348 7.36501 7.51819 8.67725 7.15676 10.1446L5.08866 16.1783C4.96689 16.5345 4.93952 16.9115 5.00874 17.279C5.07796 17.6466 5.24184 17.9943 5.48719 18.2942C5.73254 18.5942 6.05251 18.838 6.42136 19.0061C6.79022 19.1741 7.19764 19.2617 7.61087 19.2618Z" fill="white"/>
<path d="M10.2784 20.849C10.4804 21.7463 11.0201 22.5531 11.806 23.1326C12.5919 23.712 13.5757 24.0286 14.5907 24.0286C15.6057 24.0286 16.5895 23.712 17.3754 23.1326C18.1612 22.5531 18.7009 21.7463 18.9029 20.849H10.2784Z" fill="white"/>
</svg>
