<svg width="45" height="45" viewBox="0 0 45 45" fill="none" xmlns="http://www.w3.org/2000/svg">
<path d="M16.4031 7.96698C16.4031 8.45009 16.4031 8.88972 16.4031 9.33224C16.4107 11.2985 17.689 12.5932 19.6285 12.5961C21.5488 12.5961 23.4685 12.5961 25.3876 12.5961C27.3061 12.5961 28.5892 11.2966 28.5997 9.35447C28.5997 8.91001 28.5997 8.46555 28.5997 8.04041C28.6427 8.00756 28.6608 7.98147 28.679 7.98147C29.9898 7.98147 31.3025 7.94186 32.6114 7.98147C33.6537 8.01433 34.5155 8.86749 34.6712 9.91391C34.7001 10.1058 34.7145 10.2996 34.7142 10.4936C34.7142 18.5822 34.7142 26.671 34.7142 34.7602C34.7142 35.622 34.4448 36.3428 33.7388 36.8598C33.2964 37.1844 32.7939 37.2868 32.2541 37.2859C25.7574 37.282 19.2607 37.282 12.7639 37.2859C11.2353 37.2859 10.2866 36.3322 10.2856 34.7863C10.2876 31.2267 10.2885 27.6678 10.2885 24.1096C10.2885 19.5542 10.2885 14.9981 10.2885 10.4415C10.2885 9.14673 11.0395 8.2037 12.228 7.99887C12.4525 7.96964 12.6791 7.9593 12.9053 7.96795C13.9305 7.96795 14.9556 7.96795 15.9808 7.96795L16.4031 7.96698ZM22.5033 29.5774H29.7977C29.9047 29.5774 30.0127 29.5774 30.1197 29.5774C30.5907 29.5378 30.8888 29.2295 30.884 28.7918C30.884 28.3686 30.5879 28.072 30.1331 28.0305C30.0261 28.0208 29.9181 28.0305 29.8111 28.0305C24.9367 28.0305 20.0619 28.0305 15.1868 28.0305C15.0206 28.0252 14.8543 28.0385 14.691 28.0701C14.5323 28.1132 14.392 28.2079 14.2917 28.3395C14.1913 28.4711 14.1365 28.6324 14.1357 28.7986C14.1348 28.9647 14.1879 29.1266 14.2869 29.2593C14.3858 29.392 14.5251 29.4881 14.6833 29.5329C14.8465 29.566 15.0129 29.5802 15.1792 29.5754C17.6212 29.5787 20.0635 29.5793 22.5061 29.5774H22.5033ZM22.5033 23.3936H29.8321C29.9634 23.3973 30.0948 23.3938 30.2258 23.383C30.4054 23.3664 30.5726 23.2826 30.6945 23.1481C30.8164 23.0136 30.8843 22.8379 30.885 22.6554C30.8984 22.1501 30.563 21.8583 29.9573 21.8573H15.0493C14.9658 21.8547 14.8822 21.857 14.7989 21.8641C14.6009 21.8836 14.4187 21.9818 14.2921 22.137C14.1655 22.2922 14.1048 22.4918 14.1235 22.6921C14.1541 23.1453 14.4684 23.3926 15.0321 23.3936C17.5231 23.3942 20.0141 23.3939 22.5052 23.3926L22.5033 23.3936ZM22.4737 17.2272H29.8742C29.9934 17.2322 30.1127 17.229 30.2315 17.2175C30.4166 17.1936 30.5861 17.1005 30.7069 16.9566C30.8276 16.8127 30.8908 16.6283 30.884 16.4397C30.8858 16.251 30.8156 16.0688 30.6881 15.9309C30.5605 15.7931 30.3854 15.7103 30.199 15.6996C30.0805 15.688 29.9611 15.6909 29.8417 15.6909H15.1496C15.0185 15.687 14.8873 15.6919 14.7569 15.7054C14.584 15.7272 14.4247 15.8113 14.3082 15.9423C14.1917 16.0733 14.1258 16.2423 14.1225 16.4185C14.1034 16.9103 14.4416 17.2262 15.0034 17.2272C17.4944 17.2278 19.9852 17.2275 22.4756 17.2262L22.4737 17.2272Z" fill="#F67F20"/>
<path d="M22.5237 6.42871C23.5011 6.42871 24.4794 6.42871 25.4558 6.42871C26.4638 6.43547 27.08 7.06158 27.08 8.07998C27.08 8.53796 27.0848 8.99595 27.08 9.45394C27.0705 10.3631 26.4695 11.0366 25.5743 11.0472C23.524 11.0704 21.4741 11.0704 19.4244 11.0472C18.5283 11.0376 17.9302 10.3622 17.9302 9.45007C17.9302 8.99208 17.9302 8.5341 17.9302 8.07611C17.9302 7.05965 18.5435 6.43741 19.5544 6.42871C20.5461 6.42871 21.5349 6.42871 22.5237 6.42871Z" fill="#F67F20"/>
</svg>
