<svg width="35" height="35" viewBox="0 0 35 35" fill="none" xmlns="http://www.w3.org/2000/svg">
<path d="M17.5 18.2C17.1851 18.2 16.883 18.3264 16.6603 18.5515C16.4376 18.7765 16.3125 19.0817 16.3125 19.4V23C16.3125 23.3183 16.4376 23.6235 16.6603 23.8485C16.883 24.0736 17.1851 24.2 17.5 24.2C17.8149 24.2 18.117 24.0736 18.3397 23.8485C18.5624 23.6235 18.6875 23.3183 18.6875 23V19.4C18.6875 19.0817 18.5624 18.7765 18.3397 18.5515C18.117 18.3264 17.8149 18.2 17.5 18.2ZM23.4375 13.4V11C23.4375 9.4087 22.8119 7.88258 21.6984 6.75736C20.5849 5.63214 19.0747 5 17.5 5C15.9253 5 14.4151 5.63214 13.3016 6.75736C12.1881 7.88258 11.5625 9.4087 11.5625 11V13.4C10.6177 13.4 9.71153 13.7793 9.04343 14.4544C8.37533 15.1295 8 16.0452 8 17V25.4C8 26.3548 8.37533 27.2705 9.04343 27.9456C9.71153 28.6207 10.6177 29 11.5625 29H23.4375C24.3823 29 25.2885 28.6207 25.9566 27.9456C26.6247 27.2705 27 26.3548 27 25.4V17C27 16.0452 26.6247 15.1295 25.9566 14.4544C25.2885 13.7793 24.3823 13.4 23.4375 13.4ZM13.9375 11C13.9375 10.0452 14.3128 9.12955 14.9809 8.45442C15.649 7.77928 16.5552 7.4 17.5 7.4C18.4448 7.4 19.351 7.77928 20.0191 8.45442C20.6872 9.12955 21.0625 10.0452 21.0625 11V13.4H13.9375V11ZM24.625 25.4C24.625 25.7183 24.4999 26.0235 24.2772 26.2485C24.0545 26.4736 23.7524 26.6 23.4375 26.6H11.5625C11.2476 26.6 10.9455 26.4736 10.7228 26.2485C10.5001 26.0235 10.375 25.7183 10.375 25.4V17C10.375 16.6817 10.5001 16.3765 10.7228 16.1515C10.9455 15.9264 11.2476 15.8 11.5625 15.8H23.4375C23.7524 15.8 24.0545 15.9264 24.2772 16.1515C24.4999 16.3765 24.625 16.6817 24.625 17V25.4Z" fill="black"/>
</svg>
