<svg width="45" height="45" viewBox="0 0 45 45" fill="none" xmlns="http://www.w3.org/2000/svg">
<path d="M37.6651 22.7475C38.2436 23.3157 38.5715 24.086 38.5715 24.8878C38.5715 25.6897 38.2436 26.46 37.6651 27.0282C37.0865 27.5964 36.3022 27.9184 35.4858 27.9184H10.8001C9.98171 27.9184 9.19678 27.5964 8.61821 27.0282C8.03964 26.46 7.71436 25.6897 7.71436 24.8878C7.71436 24.086 8.03964 23.3157 8.61821 22.7475C9.19678 22.1792 9.98171 21.8572 10.8001 21.8572H35.4858C36.3022 21.8572 37.0865 22.1792 37.6651 22.7475ZM37.2408 30.2356C37.4336 30.425 37.5429 30.6839 37.5429 30.949V31.9593C37.5429 32.9758 37.1122 34.0617 36.3408 34.8194C35.5694 35.577 34.4636 36.0001 33.4286 36.0001H12.8572C11.7663 36.0001 10.7197 35.577 9.94828 34.8194C9.17621 34.0617 8.74293 32.9758 8.74293 31.9593V30.949C8.74293 30.6839 8.85157 30.425 9.04443 30.2356C9.23728 30.0462 9.49893 29.9388 9.7715 29.9388H36.5144C36.7844 29.9388 37.0479 30.0462 37.2408 30.2356ZM9.92514 19.6348C9.63843 19.4959 9.38771 19.3001 9.191 19.0539C8.99428 18.8077 8.858 18.5235 8.79114 18.2205C8.72428 17.9111 8.73007 17.5954 8.80657 17.2924C10.2202 11.8196 16.1036 7.71436 23.1429 7.71436C30.1822 7.71436 36.0644 11.8196 37.4786 17.2924C37.5558 17.5954 37.5622 17.9111 37.4915 18.2205C37.4272 18.5235 37.2922 18.8077 37.0929 19.0539C36.8422 19.3001 36.6494 19.4959 36.3601 19.6348C36.0772 19.7674 35.7622 19.8368 35.4408 19.8368H10.8431C10.5256 19.8368 10.2112 19.7674 9.92514 19.6348ZM30.6451 13.0621C30.4522 13.2515 30.3429 13.5104 30.3429 13.7756C30.3429 13.9776 30.4008 14.1733 30.5165 14.3375C30.6322 14.5017 30.7351 14.6343 30.9794 14.71C31.1658 14.729 31.3715 14.8047 31.5708 14.7668C31.7701 14.729 31.9565 14.6343 32.0979 14.489C32.2458 14.3501 32.3422 14.167 32.3808 13.9713C32.4194 13.7756 32.3422 13.5735 32.3229 13.3904C32.2458 13.1505 32.1108 13.0495 31.9436 12.9358C31.7765 12.8222 31.5772 12.7086 31.3715 12.7086C31.1015 12.7086 30.8379 12.8727 30.6451 13.0621ZM22.4165 11.0411C22.2236 11.2305 22.1144 11.4875 22.1144 11.7552C22.1144 11.9547 22.1722 12.1529 22.2879 12.3171C22.4036 12.4813 22.5065 12.6138 22.7508 12.6896C22.9372 12.7086 23.1429 12.7843 23.3422 12.7464C23.5415 12.7086 23.7279 12.6138 23.8694 12.4686C24.0172 12.3297 24.1136 12.1466 24.1522 11.9522C24.1908 11.7564 24.1136 11.5531 24.0944 11.3688C24.0172 11.1838 23.8822 11.0259 23.7151 10.9154C23.5479 10.8043 23.3486 10.6881 23.1429 10.6881C22.8729 10.6881 22.6094 10.8517 22.4165 11.0411ZM14.1879 13.0621C13.9951 13.2515 13.8858 13.5104 13.8858 13.7756C13.8858 13.9776 13.9436 14.1733 14.0594 14.3375C14.1751 14.5017 14.2779 14.6343 14.5222 14.71C14.7086 14.729 14.9144 14.8047 15.1136 14.7668C15.3129 14.729 15.4994 14.6343 15.6408 14.489C15.7886 14.3501 15.8851 14.167 15.9236 13.9713C15.9622 13.7756 15.8851 13.5735 15.8658 13.3904C15.7886 13.1505 15.6536 13.0495 15.4865 12.9358C15.3194 12.8222 15.1201 12.7086 14.9144 12.7086C14.6444 12.7086 14.3808 12.8727 14.1879 13.0621Z" fill="#F67F20"/>
</svg>
