<svg width="13" height="12" viewBox="0 0 13 12" fill="none" xmlns="http://www.w3.org/2000/svg">
<g id="Search">
<path id="Union" fill-rule="evenodd" clip-rule="evenodd" d="M7.55202 4.94019C7.55202 6.13012 6.5874 7.09474 5.39747 7.09474C4.20754 7.09474 3.24292 6.13012 3.24292 4.94019C3.24292 3.75027 4.20754 2.78564 5.39747 2.78564C6.5874 2.78564 7.55202 3.75027 7.55202 4.94019ZM9.44688 7.23685C9.83205 6.55919 10.052 5.77538 10.052 4.94019C10.052 2.36956 7.96811 0.285645 5.39747 0.285645C2.82683 0.285645 0.74292 2.36956 0.74292 4.94019C0.74292 7.51083 2.82683 9.59474 5.39747 9.59474C6.23244 9.59474 7.01606 9.37489 7.6936 8.98991C7.72615 9.03209 7.76175 9.07267 7.80043 9.11135L10.3313 11.6423C10.8195 12.1304 11.611 12.1304 12.0991 11.6423C12.5873 11.1541 12.5873 10.3626 12.0991 9.87449L9.5682 7.34358C9.52956 7.30494 9.48902 7.26937 9.44688 7.23685Z" fill="#BBBBBB"/>
</g>
</svg>
