<svg width="68" height="54" viewBox="0 0 68 54" fill="none" xmlns="http://www.w3.org/2000/svg">
<path d="M15.6667 49.4167L19.0001 41.1667C19.5001 39.8889 20.3056 38.8745 21.4167 38.1234C22.5279 37.3723 23.7779 36.9978 25.1667 37H30.6667V23.5834C22.1667 23.3056 15.0412 22.0556 9.29008 19.8334C3.53897 17.6112 0.664527 15 0.666749 12C0.666749 8.77782 3.91675 6.02782 10.4167 3.75004C16.9167 1.47226 24.7779 0.333374 34.0001 0.333374C43.2779 0.333374 51.1534 1.47226 57.6267 3.75004C64.1001 6.02782 67.3356 8.77782 67.3334 12C67.3334 15 64.4579 17.6112 58.7067 19.8334C52.9556 22.0556 45.8312 23.3056 37.3334 23.5834V37H42.8334C44.1667 37 45.4034 37.3756 46.5434 38.1267C47.6834 38.8778 48.5023 39.8912 49.0001 41.1667L52.3334 49.4167C52.7779 50.4167 52.6801 51.3756 52.0401 52.2934C51.4001 53.2111 50.5256 53.6689 49.4167 53.6667C48.8056 53.6667 48.2501 53.5 47.7501 53.1667C47.2501 52.8334 46.8612 52.3611 46.5834 51.75L43.3334 43.6667H24.6667L21.4167 51.75C21.139 52.3611 20.7501 52.8334 20.2501 53.1667C19.7501 53.5 19.1945 53.6667 18.5834 53.6667C17.4723 53.6667 16.5979 53.2078 15.9601 52.29C15.3223 51.3723 15.2245 50.4145 15.6667 49.4167Z" fill="black"/>
</svg>
