<svg width="60" height="60" viewBox="0 0 60 60" fill="none" xmlns="http://www.w3.org/2000/svg">
<circle cx="30" cy="30" r="30" fill="black"/>
<path fill-rule="evenodd" clip-rule="evenodd" d="M20.3993 28.2938C19.6272 28.2938 19 28.9262 19 29.7062V39.5876C19 40.3675 19.6272 41 20.3993 41H23.1994C23.973 41 24.6002 40.3675 24.6002 39.5876V29.7062C24.6002 28.9262 23.973 28.2938 23.1994 28.2938H20.3993ZM28.1003 17C27.3268 17 26.6996 17.6325 26.6996 18.4124V39.5876C26.6996 40.3675 27.3268 41 28.1003 41H30.8997C31.6725 41 32.2997 40.3675 32.2997 39.5876V18.4124C32.2997 17.6325 31.6725 17 30.8997 17H28.1003ZM35.8006 22.6469C35.027 22.6469 34.3998 23.2793 34.3998 24.0593V39.5876C34.3998 40.3675 35.027 41 35.8006 41H38.6007C39.3728 41 40 40.3675 40 39.5876V24.0593C40 23.2793 39.3728 22.6469 38.6007 22.6469H35.8006Z" fill="white"/>
</svg>
