<svg width="60" height="60" viewBox="0 0 60 60" fill="none" xmlns="http://www.w3.org/2000/svg">
<circle cx="30" cy="30" r="30" fill="#F67F20"/>
<path d="M21.2855 21.9392H37.714C37.9059 21.9391 38.0977 21.9515 38.288 21.9764C38.2235 21.5133 38.0679 21.0682 37.8306 20.6682C37.5934 20.2681 37.2794 19.9214 36.9075 19.6488C36.5357 19.3762 36.1137 19.1835 35.6671 19.0822C35.2204 18.9809 34.7584 18.9731 34.3087 19.0594L20.7977 21.4183H20.7823C19.9342 21.5842 19.1801 22.0749 18.6738 22.7902C19.4365 22.2355 20.3495 21.9379 21.2855 21.9392Z" fill="white"/>
<path d="M37.7143 23.1992H21.2857C20.4146 23.2002 19.5794 23.5545 18.9634 24.1845C18.3474 24.8144 18.001 25.6685 18 26.5594V36.6398C18.001 37.5307 18.3474 38.3848 18.9634 39.0147C19.5794 39.6447 20.4146 39.999 21.2857 40H37.7143C38.5854 39.999 39.4206 39.6447 40.0366 39.0147C40.6526 38.3848 40.9991 37.5307 41 36.6398V26.5594C40.9991 25.6685 40.6526 24.8144 40.0366 24.1845C39.4206 23.5545 38.5854 23.2002 37.7143 23.1992ZM35.2757 33.2797C34.9507 33.2797 34.6331 33.1811 34.3629 32.9965C34.0928 32.8119 33.8822 32.5495 33.7579 32.2425C33.6335 31.9355 33.601 31.5977 33.6644 31.2718C33.7278 30.9459 33.8842 30.6466 34.114 30.4116C34.3438 30.1766 34.6365 30.0166 34.9552 29.9518C35.2738 29.887 35.6042 29.9202 35.9044 30.0474C36.2046 30.1746 36.4611 30.3899 36.6417 30.6662C36.8222 30.9425 36.9185 31.2673 36.9185 31.5996C36.9185 32.0452 36.7454 32.4725 36.4373 32.7876C36.1292 33.1027 35.7114 33.2797 35.2757 33.2797Z" fill="white"/>
<path d="M18.0259 30.1034V24.8794C18.0259 23.7417 18.642 21.8343 20.7802 21.4211C22.5951 21.073 24.392 21.073 24.392 21.073C24.392 21.073 25.5728 21.913 24.5973 21.913C23.6219 21.913 23.6475 23.1993 24.5973 23.1993C25.5471 23.1993 24.5973 24.4331 24.5973 24.4331L20.7725 28.8696L18.0259 30.1034Z" fill="white"/>
</svg>
